<?xml version="1.0" standalone="no"?>
<!DOCTYPE svg PUBLIC "-//W3C//DTD SVG 20010904//EN"
 "http://www.w3.org/TR/2001/REC-SVG-20010904/DTD/svg10.dtd">
<svg version="1.0" xmlns="http://www.w3.org/2000/svg"
 width="393.000000pt" height="637.000000pt" viewBox="0 0 393.000000 637.000000"
 preserveAspectRatio="xMidYMid meet">
<metadata>
Created by potrace 1.14, written by Peter Selinger 2001-2017
</metadata>
<g transform="translate(0.000000,637.000000) scale(0.100000,-0.100000)"
fill="#000000" stroke="none">
<path d="M0 3185 l0 -3185 1965 0 1965 0 0 3185 0 3185 -1965 0 -1965 0 0
-3185z m2080 3051 c107 -56 164 -133 175 -236 6 -54 12 -70 36 -92 47 -44 37
-101 -33 -190 -43 -54 -78 -152 -78 -215 l0 -53 -289 0 c-167 0 -292 4 -296 9
-3 5 0 21 6 34 16 36 -20 151 -67 212 -43 57 -70 109 -79 152 -6 30 -3 35 29
54 30 17 36 27 41 67 17 126 65 199 164 252 39 20 117 29 241 26 89 -1 123 -6
150 -20z m126 -833 c8 -21 25 -34 70 -52 32 -13 89 -37 126 -52 37 -17 84 -29
108 -29 l41 0 -5 -497 c-5 -513 -13 -665 -40 -768 -19 -71 -21 -248 -5 -344 6
-36 22 -88 35 -114 32 -65 30 -80 -13 -113 -21 -16 -47 -38 -58 -49 -11 -11
-79 -69 -151 -128 -73 -59 -143 -118 -155 -130 -57 -55 -129 -108 -138 -102
-6 3 -18 -7 -27 -22 -26 -42 -44 -53 -86 -53 -34 0 -59 15 -208 128 -93 70
-169 133 -170 139 0 11 -45 46 -103 80 -24 14 -82 55 -146 105 l-48 38 35 87
35 87 -8 131 c-4 71 -9 148 -11 170 -2 22 -8 103 -14 179 -6 77 -13 142 -15
146 -2 3 -5 235 -6 516 l-2 509 45 5 c27 3 65 19 99 41 30 20 65 42 79 49 14
7 40 26 58 41 l33 29 317 0 318 0 10 -27z m-976 -623 c0 -458 -1 -495 -21
-577 -28 -123 -34 -202 -19 -271 10 -50 10 -70 -4 -128 -16 -74 -45 -161 -75
-228 -21 -45 -37 -95 -75 -224 -18 -61 -22 -90 -16 -108 5 -13 9 -91 9 -172
-1 -81 2 -188 6 -237 6 -76 5 -93 -8 -104 -37 -30 -74 9 -79 83 -5 77 -18 44
-18 -46 0 -51 -4 -98 -8 -104 -14 -22 -53 -27 -73 -8 -16 15 -19 32 -20 128
l-2 111 -8 -85 c-15 -148 -27 -189 -55 -196 -14 -4 -31 -1 -40 7 -14 12 -16
33 -12 151 l5 137 -38 -112 c-21 -61 -39 -113 -39 -115 0 -1 -12 -7 -26 -12
-38 -15 -57 4 -51 49 4 32 56 236 73 287 3 10 -20 -9 -53 -43 -52 -55 -64 -63
-96 -63 -23 0 -40 5 -43 14 -3 8 14 47 38 88 24 40 57 95 73 123 41 67 109
140 147 156 l31 13 -7 115 c-3 64 -9 224 -13 356 -6 223 -4 248 16 350 12 61
33 138 47 173 32 82 42 136 54 317 21 304 35 369 106 480 29 45 80 99 126 134
15 11 133 48 161 50 4 1 7 -219 7 -489z m1491 439 c53 -26 123 -114 164 -202
34 -74 60 -171 50 -187 -3 -4 4 -52 15 -107 10 -54 26 -147 35 -208 12 -78 27
-133 52 -190 68 -154 87 -229 98 -385 2 -41 9 -138 14 -215 10 -140 20 -326
21 -377 0 -21 9 -33 43 -52 23 -14 54 -38 68 -53 28 -31 119 -158 119 -167 0
-3 19 -32 41 -65 44 -64 46 -91 7 -91 -35 0 -76 25 -120 75 -23 25 -42 44 -44
42 -2 -2 19 -68 46 -146 28 -79 50 -151 50 -161 0 -26 -26 -43 -55 -36 -26 7
-58 65 -100 183 -10 29 -20 51 -22 49 -2 -1 6 -56 18 -121 11 -66 18 -129 15
-141 -7 -26 -36 -38 -66 -29 -20 6 -49 83 -51 134 -1 36 -27 152 -28 121 0
-14 4 -60 8 -104 10 -95 6 -115 -27 -127 -46 -18 -59 10 -75 151 l-15 125 -1
-83 c0 -46 -6 -92 -11 -103 -12 -21 -52 -26 -67 -6 -14 16 -31 429 -23 540 3
39 -69 230 -109 287 -143 207 -173 319 -136 499 10 44 13 92 10 120 -9 62 -44
168 -61 182 -12 9 -14 91 -14 449 0 240 3 439 6 443 7 7 99 -20 145 -44z
m-131 -1799 c12 -6 23 -33 33 -77 21 -96 25 -126 53 -503 7 -93 -10 -337 -37
-541 -17 -128 -21 -223 -24 -559 -3 -448 0 -415 -86 -844 -55 -276 -59 -306
-55 -400 7 -137 15 -164 75 -237 54 -68 64 -105 34 -134 -36 -36 -104 -42
-316 -28 -94 6 -101 8 -133 38 -29 28 -34 39 -34 79 0 25 14 89 31 142 30 92
31 97 17 142 -12 36 -13 54 -4 86 15 57 9 325 -9 406 -69 301 -81 426 -50 540
20 74 19 132 -4 242 -32 152 -52 258 -66 353 -8 50 -20 128 -28 175 -46 264
-52 311 -52 457 0 147 1 152 24 177 14 14 33 26 43 26 10 0 18 6 18 14 0 8 22
31 49 50 27 20 51 40 53 44 2 4 50 45 108 91 58 46 112 91 120 100 24 27 203
171 213 171 4 0 17 -4 27 -10z m-1300 -76 c30 -15 59 -33 63 -41 4 -7 13 -13
19 -13 6 0 25 -11 42 -24 17 -13 72 -51 121 -86 50 -34 92 -67 93 -71 2 -5 8
-9 13 -9 7 0 58 -36 144 -102 6 -5 20 -16 33 -26 18 -13 25 -33 34 -92 17
-126 10 -193 -74 -690 -22 -129 -44 -262 -49 -295 -6 -33 -16 -85 -24 -115
-18 -71 -21 -193 -5 -250 28 -100 10 -318 -41 -490 -27 -93 -43 -329 -27 -400
14 -65 13 -132 -2 -160 -9 -16 -4 -44 24 -135 40 -132 39 -169 -6 -212 -26
-25 -39 -29 -121 -35 -172 -12 -265 -9 -300 8 -65 33 -63 66 6 147 44 52 56
74 65 123 17 84 16 216 -2 309 -22 118 -45 232 -61 305 -61 278 -59 260 -62
670 -2 384 -5 442 -45 789 -16 151 -19 216 -14 355 13 330 25 437 54 506 11
25 22 53 25 63 5 13 11 15 24 8 10 -5 43 -21 73 -37z"/>
</g>
</svg>
